<svg width="45" height="45" viewBox="0 0 45 45" fill="none" xmlns="http://www.w3.org/2000/svg">
<g id="moonIcon">
<g id="moon">
<g id="moonColors">
<path id="moonTop" d="M17.4697 34.1271C17.4697 35.5664 17.6925 36.9714 18.1037 38.2736C11.5242 35.9948 6.55523 29.9464 6.0412 22.8699C5.52717 15.348 9.86214 8.32299 16.87 5.3759C18.6863 4.62199 19.6116 5.17029 20.0056 5.56438C20.3826 5.94133 20.9138 6.84944 20.1599 8.58C19.3888 10.362 19.0118 12.2467 19.0118 14.2C19.029 17.6954 20.3997 20.9338 22.6272 23.4182C19.4916 25.9198 17.4697 29.7922 17.4697 34.1271Z"/>
<path id="moonBottom" opacity="0.4" d="M38.3895 31.9338C34.9969 36.5429 29.6168 39.2501 23.8768 39.2501C23.6026 39.2501 23.3285 39.233 23.0543 39.2159C21.3409 39.1473 19.6789 38.8218 18.1025 38.2735C17.6913 36.9713 17.4686 35.5663 17.4686 34.127C17.4686 29.792 19.4904 25.9197 22.626 23.4181C25.1447 26.2452 28.76 28.0786 32.7523 28.2499C33.8318 28.3013 34.9112 28.2157 35.9736 28.0272C37.8926 27.6845 38.6636 28.4041 38.9378 28.8668C39.2291 29.3294 39.5375 30.3403 38.3895 31.9338Z" fill="black"/>
</g>
</g>
</g>
</svg>
